<?xml version="1.0" standalone="no"?>
<!DOCTYPE svg PUBLIC "-//W3C//DTD SVG 20010904//EN"
 "http://www.w3.org/TR/2001/REC-SVG-20010904/DTD/svg10.dtd">
<svg version="1.0" xmlns="http://www.w3.org/2000/svg"
 width="347.000000pt" height="327.000000pt" viewBox="0 0 347.000000 327.000000"
 preserveAspectRatio="xMidYMid meet">

<g transform="translate(0.000000,327.000000) scale(0.100000,-0.100000)"
fill="#000000" stroke="none">
<path d="M1628 3157 c-322 -285 -858 -666 -1138 -807 -57 -29 -65 -30 -189
-30 -182 0 -172 24 -129 -317 26 -212 36 -271 50 -285 14 -14 35 -18 94 -18
l76 0 -6 -142 c-17 -349 -63 -784 -116 -1093 -50 -291 -51 -294 -74 -301 -55
-17 -73 -67 -36 -104 20 -20 33 -20 1580 -20 1547 0 1560 0 1580 20 37 37 19
87 -36 104 -18 5 -24 28 -53 179 -68 365 -118 807 -137 1215 l-6 142 76 0 c59
0 80 4 94 18 14 14 24 73 50 285 43 341 53 317 -129 317 -124 0 -132 1 -189
30 -279 141 -818 523 -1138 807 -51 46 -102 83 -112 83 -10 0 -61 -37 -112
-83z m151 -199 c76 -140 200 -341 297 -485 l103 -153 -439 0 -439 0 93 138
c91 134 239 374 307 500 18 34 36 62 39 62 3 0 21 -28 39 -62z m-320 -170
c-81 -135 -166 -261 -251 -375 l-69 -93 -217 0 c-197 1 -215 2 -197 16 11 9
83 56 160 106 152 98 384 264 535 381 52 41 96 73 98 72 2 -2 -25 -50 -59
-107z m861 -157 c142 -102 297 -206 430 -289 l35 -22 -221 0 -222 0 -59 78
c-93 120 -323 475 -323 497 0 3 44 -29 98 -70 53 -42 171 -129 262 -194z m880
-463 c0 -18 -9 -100 -20 -183 -11 -82 -20 -153 -20 -157 0 -5 -639 -8 -1420
-8 -781 0 -1420 3 -1420 8 0 4 -9 75 -20 157 -11 83 -20 165 -20 183 l0 32
1460 0 1460 0 0 -32z m-2099 -603 c-3 -188 -38 -696 -71 -1045 -5 -52 -15
-152 -22 -223 l-12 -127 -327 0 -327 0 15 68 c69 328 137 911 149 1267 3 94 7
176 10 183 3 10 67 12 295 10 l292 -3 -2 -130z m1153 -47 c7 -184 27 -500 46
-723 20 -230 48 -531 55 -587 l5 -38 -120 0 -120 0 0 303 c0 411 -11 466 -111
572 -149 158 -389 158 -538 0 -100 -106 -111 -161 -111 -572 l0 -303 -120 0
-120 0 5 38 c7 53 33 334 55 582 17 199 39 548 46 733 l7 177 507 0 507 0 7
-182z m718 7 c14 -366 75 -898 142 -1238 l23 -117 -327 0 -326 0 -12 128 c-7
70 -17 170 -22 222 -43 450 -81 1074 -71 1173 1 4 133 6 294 5 l292 -3 7 -170z
m-1108 -519 c25 -15 57 -41 70 -59 53 -69 56 -93 56 -448 l0 -329 -250 0 -251
0 3 348 3 347 28 47 c51 88 132 130 234 124 44 -3 75 -11 107 -30z"/>
</g>
</svg>
