<?xml version="1.0" standalone="no"?>
<!DOCTYPE svg PUBLIC "-//W3C//DTD SVG 20010904//EN"
 "http://www.w3.org/TR/2001/REC-SVG-20010904/DTD/svg10.dtd">
<svg version="1.0" xmlns="http://www.w3.org/2000/svg"
 width="321.000000pt" height="299.000000pt" viewBox="0 0 321.000000 299.000000"
 preserveAspectRatio="xMidYMid meet">

<g transform="translate(0.000000,299.000000) scale(0.100000,-0.100000)"
fill="#673AB7" stroke="none">
<path d="M676 2955 c-21 -7 -54 -25 -74 -39 -19 -14 -154 -161 -299 -328
l-263 -303 1 -110 c0 -78 5 -124 17 -157 38 -106 117 -180 229 -215 l53 -17 0
-584 c0 -433 3 -595 12 -626 7 -22 29 -57 49 -77 49 -49 108 -61 268 -57 105
3 126 6 135 21 8 12 8 22 0 35 -10 14 -32 18 -160 22 -94 3 -157 10 -171 18
-53 30 -53 24 -53 659 l0 589 56 17 c73 22 138 68 178 124 l31 44 15 -23 c34
-52 73 -87 132 -118 148 -79 338 -36 432 97 l31 44 15 -23 c34 -52 73 -87 132
-119 59 -32 69 -34 158 -34 89 0 99 2 158 34 59 32 98 67 132 119 l15 23 31
-44 c134 -190 433 -179 564 21 l15 23 31 -44 c40 -56 105 -102 178 -124 l56
-17 0 -589 c0 -635 0 -629 -53 -659 -14 -8 -77 -15 -171 -18 -128 -4 -150 -8
-160 -23 -8 -12 -8 -22 0 -35 9 -14 30 -17 135 -20 160 -4 219 8 268 57 20 20
42 55 49 77 9 31 12 193 12 626 l0 584 53 17 c113 36 186 104 227 213 16 43
20 78 20 162 l0 107 -269 310 c-217 249 -280 315 -323 340 l-53 30 -900 2
c-748 2 -907 0 -939 -12z m681 -102 c-10 -70 -88 -518 -92 -530 -3 -10 -65
-13 -260 -13 l-256 0 34 63 c19 34 87 164 151 290 l118 227 155 0 156 0 -6
-37z m909 -190 c64 -126 132 -256 151 -290 l34 -63 -256 0 c-195 0 -257 3
-260 13 -4 12 -82 460 -92 530 l-6 37 156 0 155 0 118 -227z m-1618 -515 c-7
-102 -33 -163 -94 -217 -76 -66 -187 -83 -280 -41 -103 45 -153 126 -162 257
l-5 83 273 0 273 0 -5 -82z m1219 0 c-7 -97 -24 -144 -72 -197 -100 -110 -290
-110 -390 0 -49 54 -66 101 -72 197 l-6 82 273 0 273 0 -6 -82z m1221 5 c-8
-133 -61 -221 -161 -263 -96 -42 -205 -26 -281 41 -61 54 -87 115 -94 217 l-5
82 273 0 273 0 -5 -77z"/>
<path d="M1480 1578 c-94 -48 -469 -266 -505 -293 -17 -12 -44 -47 -60 -76
l-30 -54 -3 -314 c-3 -274 -1 -320 14 -368 27 -87 71 -121 364 -288 l264 -150
76 0 76 0 264 150 c293 167 337 201 364 288 15 48 17 94 14 368 l-3 314 -30
54 c-37 67 -45 72 -295 217 -315 182 -304 176 -379 181 -60 4 -72 2 -131 -29z
m295 -117 c61 -35 169 -98 240 -139 170 -98 182 -107 205 -152 19 -37 20 -60
20 -350 0 -290 -1 -313 -20 -350 -25 -48 -26 -49 -320 -219 -324 -187 -278
-186 -591 -5 -300 173 -305 177 -329 224 -19 37 -20 58 -20 350 0 290 1 313
20 350 24 47 27 49 280 195 113 65 223 129 245 142 33 20 51 23 100 21 52 -3
74 -12 170 -67z"/>
<path d="M1180 991 c-5 -11 -10 -86 -10 -171 0 -156 7 -190 39 -190 32 0 40
23 43 116 l3 89 60 -98 c61 -98 84 -119 110 -97 12 10 15 46 15 180 0 179 -5
199 -49 185 -18 -5 -21 -16 -23 -103 l-3 -97 -52 80 c-74 116 -82 125 -103
125 -11 0 -24 -9 -30 -19z"/>
<path d="M1512 998 c-8 -8 -12 -62 -12 -179 0 -178 5 -198 50 -184 18 6 20 15
20 76 l0 69 64 0 c62 0 96 14 96 40 0 26 -34 40 -96 40 l-64 0 0 35 0 35 64 0
c45 0 69 5 80 16 19 18 19 20 6 45 -9 17 -22 19 -103 19 -59 0 -97 -4 -105
-12z"/>
<path d="M1783 1003 c-16 -6 -17 -45 -1 -61 7 -7 27 -12 45 -12 l33 0 0 -139
c0 -148 7 -170 50 -156 19 6 20 14 20 151 l0 144 34 0 c19 0 42 7 50 16 19 18
19 20 6 45 -10 17 -22 19 -118 18 -59 0 -113 -3 -119 -6z"/>
</g>
</svg>