<?xml version="1.0" standalone="no"?>
<!DOCTYPE svg PUBLIC "-//W3C//DTD SVG 20010904//EN"
 "http://www.w3.org/TR/2001/REC-SVG-20010904/DTD/svg10.dtd">
<svg version="1.0" xmlns="http://www.w3.org/2000/svg"
 width="283.000000pt" height="288.000000pt" viewBox="0 0 283.000000 288.000000"
 preserveAspectRatio="xMidYMid meet">

<g transform="translate(0.000000,288.000000) scale(0.100000,-0.100000)"
fill="#000000" stroke="none">
<path d="M1283 2830 c-281 -51 -520 -297 -564 -581 -66 -421 266 -808 693
-809 72 0 188 22 256 49 188 75 358 262 416 461 39 130 30 311 -21 439 -105
266 -343 436 -622 446 -58 2 -129 0 -158 -5z m229 -201 c143 -30 285 -140 346
-270 144 -301 -39 -655 -366 -711 -299 -51 -582 188 -582 492 0 131 53 254
149 351 122 122 288 172 453 138z"/>
<path d="M773 1230 c-340 -51 -628 -306 -729 -645 -23 -79 -27 -113 -31 -272
-6 -202 0 -234 48 -258 42 -22 2656 -22 2698 0 48 24 54 56 48 258 -4 158 -8
194 -31 270 -93 313 -326 541 -641 629 -78 22 -92 22 -695 24 -338 1 -638 -2
-667 -6z m1327 -214 c127 -42 202 -88 296 -181 70 -69 100 -108 131 -170 58
-113 73 -173 80 -307 l6 -118 -1203 0 -1203 0 6 118 c4 71 13 141 25 178 78
250 302 451 547 494 28 4 322 7 655 6 556 -2 609 -3 660 -20z"/>
</g>
</svg>
